<mxfile host="app.diagrams.net" modified="2021-01-09T06:53:22.693Z" agent="5.0 (X11; Linux x86_64) AppleWebKit/537.36 (KHTML, like Gecko) Chrome/87.0.4280.88 Safari/537.36" etag="y0lKMix4JQUYRZ-kLxk2" version="14.1.8" type="github">
  <diagram id="ygghDUTjfjhycSP1k7Ox" name="Page-1">
    <mxGraphModel dx="744" dy="357" grid="1" gridSize="10" guides="1" tooltips="1" connect="1" arrows="1" fold="1" page="1" pageScale="1" pageWidth="850" pageHeight="1100" math="0" shadow="0">
      <root>
        <mxCell id="0" />
        <mxCell id="1" parent="0" />
        <mxCell id="7ZuKBuAMagFnStaNHIoC-1" value="1.2.1&lt;br&gt;Initiate Harrcascade&lt;br&gt;Classifier" style="ellipse;whiteSpace=wrap;html=1;aspect=fixed;" vertex="1" parent="1">
          <mxGeometry x="200" y="120" width="100" height="100" as="geometry" />
        </mxCell>
        <mxCell id="7ZuKBuAMagFnStaNHIoC-2" value="1.2.2&lt;br&gt;Initiate Dlib with 68 landmark point" style="ellipse;whiteSpace=wrap;html=1;aspect=fixed;" vertex="1" parent="1">
          <mxGeometry x="430" y="120" width="100" height="100" as="geometry" />
        </mxCell>
        <mxCell id="7ZuKBuAMagFnStaNHIoC-3" value="" style="endArrow=classic;html=1;exitX=1;exitY=0.5;exitDx=0;exitDy=0;entryX=0;entryY=0.5;entryDx=0;entryDy=0;" edge="1" parent="1" source="7ZuKBuAMagFnStaNHIoC-1" target="7ZuKBuAMagFnStaNHIoC-2">
          <mxGeometry width="50" height="50" relative="1" as="geometry">
            <mxPoint x="300" y="200" as="sourcePoint" />
            <mxPoint x="350" y="150" as="targetPoint" />
          </mxGeometry>
        </mxCell>
        <mxCell id="7ZuKBuAMagFnStaNHIoC-4" value="Face recognized frame" style="text;html=1;align=center;verticalAlign=middle;resizable=0;points=[];autosize=1;" vertex="1" parent="1">
          <mxGeometry x="297" y="140" width="140" height="20" as="geometry" />
        </mxCell>
        <mxCell id="7ZuKBuAMagFnStaNHIoC-5" value="" style="endArrow=classic;html=1;exitX=0.5;exitY=1;exitDx=0;exitDy=0;" edge="1" parent="1" source="7ZuKBuAMagFnStaNHIoC-2">
          <mxGeometry width="50" height="50" relative="1" as="geometry">
            <mxPoint x="510" y="320" as="sourcePoint" />
            <mxPoint x="480" y="290" as="targetPoint" />
          </mxGeometry>
        </mxCell>
        <mxCell id="7ZuKBuAMagFnStaNHIoC-6" value="Face annoted &lt;br&gt;with points" style="text;html=1;align=center;verticalAlign=middle;resizable=0;points=[];autosize=1;" vertex="1" parent="1">
          <mxGeometry x="490" y="235" width="90" height="30" as="geometry" />
        </mxCell>
        <mxCell id="7ZuKBuAMagFnStaNHIoC-7" value="1.2.3&lt;br&gt;Initiate Face_imutils" style="ellipse;whiteSpace=wrap;html=1;aspect=fixed;" vertex="1" parent="1">
          <mxGeometry x="430" y="290" width="100" height="100" as="geometry" />
        </mxCell>
        <mxCell id="7ZuKBuAMagFnStaNHIoC-8" value="" style="endArrow=classic;html=1;" edge="1" parent="1">
          <mxGeometry width="50" height="50" relative="1" as="geometry">
            <mxPoint x="80" y="170" as="sourcePoint" />
            <mxPoint x="197" y="170" as="targetPoint" />
          </mxGeometry>
        </mxCell>
        <mxCell id="7ZuKBuAMagFnStaNHIoC-9" value="Frame" style="text;html=1;strokeColor=none;fillColor=none;align=center;verticalAlign=middle;whiteSpace=wrap;rounded=0;" vertex="1" parent="1">
          <mxGeometry x="110" y="140" width="40" height="20" as="geometry" />
        </mxCell>
        <mxCell id="7ZuKBuAMagFnStaNHIoC-10" value="" style="endArrow=classic;html=1;" edge="1" parent="1" source="7ZuKBuAMagFnStaNHIoC-7">
          <mxGeometry width="50" height="50" relative="1" as="geometry">
            <mxPoint x="460" y="490" as="sourcePoint" />
            <mxPoint x="480" y="470" as="targetPoint" />
          </mxGeometry>
        </mxCell>
        <mxCell id="7ZuKBuAMagFnStaNHIoC-11" value="&lt;span&gt;eye region &amp;amp; mouth region data points&lt;/span&gt;" style="text;html=1;strokeColor=none;fillColor=none;align=center;verticalAlign=middle;whiteSpace=wrap;rounded=0;" vertex="1" parent="1">
          <mxGeometry x="498" y="400" width="70" height="35" as="geometry" />
        </mxCell>
      </root>
    </mxGraphModel>
  </diagram>
</mxfile>
